<svg xmlns="http://www.w3.org/2000/svg" width="24" height="24" viewBox="0 0 24 24">
    <g fill="none" fill-rule="evenodd">
        <path fill="#E68A1D" d="M12,2 L12,5.5 L15,7 L12,8.5 L12,12 L16.5,12 L18,15 L19.5,12 L24,12 L24,9 L19.5,9 L18,6 L16.5,9 L12,9 L12,2 Z M12,12 L7.5,12 L6,15 L4.5,12 L0,12 L0,9 L4.5,9 L6,6 L7.5,9 L12,9 L12,12 Z M12,22 L12,18.5 L9,17 L12,15.5 L12,12 L7.5,12 L6,9 L4.5,12 L0,12 L0,15 L4.5,15 L6,18 L7.5,15 L12,15 L12,22 Z M12,12 L16.5,12 L18,9 L19.5,12 L24,12 L24,15 L19.5,15 L18,18 L16.5,15 L12,15 L12,12 Z" />
    </g>
</svg>
