<?xml version="1.0" standalone="no"?>
<!DOCTYPE svg PUBLIC "-//W3C//DTD SVG 20010904//EN"
 "http://www.w3.org/TR/2001/REC-SVG-20010904/DTD/svg10.dtd">
<svg version="1.0" xmlns="http://www.w3.org/2000/svg"
 width="500.000000pt" height="500.000000pt" viewBox="0 0 500.000000 500.000000"
 preserveAspectRatio="xMidYMid meet">

<g transform="translate(0.000000,500.000000) scale(0.100000,-0.100000)"
fill="#000000" stroke="none">
<path d="M4125 3790 c-22 -4 -80 -26 -130 -49 -144 -68 -175 -79 -479 -167
-158 -45 -291 -86 -295 -90 -3 -4 4 -5 16 -2 13 4 27 0 34 -8 10 -12 8 -13 -7
-8 -16 5 -16 4 -3 -5 17 -11 121 13 529 124 129 35 287 76 350 91 160 37 175
48 128 91 -26 23 -84 32 -143 23z"/>
<path d="M3980 3510 c-157 -43 -324 -88 -372 -100 -48 -13 -85 -27 -82 -31 3
-5 0 -9 -7 -9 -10 0 -10 -3 -1 -12 17 -17 15 -28 -5 -22 -11 4 -14 3 -7 -3 18
-13 22 -37 9 -50 -7 -6 -46 -21 -86 -32 -144 -40 -729 -191 -1089 -280 -201
-50 -375 -94 -387 -97 -22 -6 -23 -4 -23 54 0 38 5 64 13 69 6 4 57 19 112 33
l100 25 3 93 c2 73 0 93 -10 90 -7 -3 -16 -23 -19 -46 -3 -23 -7 -44 -10 -46
-14 -14 -296 -79 -567 -131 -110 -21 -172 -45 -273 -105 -87 -53 -90 -54 -88
-42 4 21 -4 31 -30 42 -38 15 -49 40 -18 40 16 0 19 -3 8 -9 -11 -7 -9 -12 10
-22 22 -11 23 -11 10 4 -11 14 -11 17 0 17 11 0 11 2 -1 10 -32 21 -56 9 -126
-64 -113 -119 -183 -274 -204 -452 -7 -54 -16 -104 -20 -109 -10 -11 2 -109
18 -160 36 -111 89 -238 145 -348 57 -111 64 -132 56 -155 -6 -14 -7 -42 -4
-62 7 -40 41 -103 53 -97 10 6 42 -30 34 -39 -4 -4 -1 -4 7 1 9 5 20 0 33 -16
11 -13 16 -17 12 -10 -7 13 53 -23 66 -39 13 -17 131 -9 220 14 303 80 407
106 515 131 66 15 314 74 550 132 237 58 601 147 810 198 209 51 505 123 659
161 153 37 284 74 291 81 11 10 13 144 13 690 0 373 -4 658 -8 633 -6 -36 -7
-26 -8 53 -1 53 -5 97 -9 96 -5 0 -136 -35 -293 -79z m59 -257 c0 -32 -2 -35
-9 -16 -8 19 -13 21 -42 12 -18 -5 -35 -9 -37 -9 -2 0 -1 -104 3 -232 4 -167
9 -234 18 -239 7 -5 16 -3 20 4 6 9 8 9 8 -1 0 -7 5 -10 10 -7 6 3 10 32 11
63 0 31 4 66 9 77 5 12 8 -85 8 -235 -1 -140 -3 -243 -5 -229 -3 18 -12 28
-26 31 -44 8 -47 2 -47 -107 0 -57 -4 -107 -10 -110 -11 -7 -19 980 -8 998 4
7 27 17 50 24 24 6 44 11 46 12 1 1 2 -16 1 -36z m-249 -470 c0 -248 -4 -444
-9 -452 -6 -9 -6 -22 0 -33 6 -11 9 -26 7 -35 -3 -16 -59 69 -159 242 -26 44
-63 105 -83 135 l-36 55 -2 -235 c0 -129 -4 -213 -7 -186 -6 47 -30 80 -47 63
-10 -9 -22 -90 -25 -162 -4 -80 -16 431 -18 717 0 125 3 229 8 232 8 6 141
-195 227 -344 l49 -85 5 255 5 254 25 7 c65 18 60 54 60 -428z m380 -38 c0
-285 -4 -446 -10 -450 -7 -4 -10 148 -10 450 0 302 3 454 10 450 6 -4 10 -165
10 -450z m-950 -80 c0 -263 -3 -405 -10 -405 -5 0 -10 9 -10 20 0 11 -6 20
-14 20 -28 0 -77 -23 -86 -40 -6 -10 -10 -64 -10 -119 0 -56 -4 -103 -10 -106
-7 -4 -10 165 -10 499 l0 505 38 10 c58 15 76 19 95 20 16 1 17 -25 17 -404z
m-330 -175 c0 -327 -3 -500 -10 -500 -6 0 -10 31 -10 74 0 67 -2 75 -21 81
-32 10 -39 -4 -46 -93 -13 -169 -23 -71 -25 249 l-3 331 -39 -102 -40 -102
-28 56 c-16 31 -30 56 -32 56 -1 0 -1 -44 2 -99 2 -54 1 -155 -3 -224 -6 -113
-9 -125 -22 -111 -28 27 -42 -10 -43 -108 0 -51 -4 -88 -10 -88 -6 0 -11 116
-12 313 -3 344 2 325 -48 192 l-12 -30 -43 85 -44 85 -1 -110 c0 -146 -12
-433 -17 -419 -2 7 -13 10 -23 7 -12 -3 -20 0 -20 8 0 7 -3 9 -7 5 -5 -4 -10
-51 -13 -104 -3 -64 -9 -97 -17 -100 -10 -3 -13 101 -13 497 l0 501 23 9 c75
29 78 27 126 -56 l45 -76 48 101 c29 61 54 102 63 102 8 0 15 -4 15 -9 0 -14
71 -131 80 -131 4 0 25 42 48 92 40 91 42 93 84 104 24 7 49 12 56 13 9 1 12
-105 12 -499z m-1139 331 c30 -11 75 -37 98 -57 l42 -37 -38 -22 c-34 -19 -82
-31 -68 -17 3 3 0 11 -7 19 -8 10 -8 12 4 8 9 -4 15 0 15 10 0 9 -6 14 -12 11
-6 -2 -12 2 -12 10 0 7 4 11 8 8 4 -2 10 -1 12 3 3 5 -10 16 -29 25 -19 10
-34 13 -34 8 0 -6 -4 -10 -10 -10 -5 0 -7 7 -4 15 7 17 6 17 -151 19 -101 1
-115 -1 -166 -27 -75 -36 -144 -98 -192 -172 -30 -46 -37 -53 -31 -30 22 94
137 201 256 241 94 31 232 29 319 -5z m457 -63 l-3 -62 -65 -16 -65 -16 -3
-102 c-3 -115 -7 -110 78 -87 30 8 56 15 58 15 1 0 2 -22 2 -49 0 -47 -1 -49
-32 -55 -18 -3 -49 -11 -70 -17 l-38 -10 0 -79 c0 -44 3 -80 8 -80 4 0 32 7
62 15 30 8 59 15 63 15 5 0 7 -19 5 -42 l-3 -43 -100 -27 c-55 -15 -106 -27
-112 -28 -10 0 -13 74 -13 340 l0 340 28 6 c15 3 59 14 97 24 110 28 106 30
103 -42z m-348 -468 l0 -200 -42 -27 c-105 -66 -255 -90 -371 -60 -58 15 -167
74 -167 89 0 4 15 8 34 8 23 0 39 7 50 23 9 12 14 15 10 7 -7 -13 -6 -13 10
-1 13 11 14 16 4 22 -7 5 -9 9 -5 9 5 0 -5 14 -23 31 -58 58 -95 165 -71 205
9 16 10 13 11 -21 1 -83 63 -173 145 -211 59 -28 154 -32 212 -9 l38 15 -3 76
-4 76 -26 -6 c-15 -3 -37 -8 -49 -12 -22 -6 -23 -4 -23 59 l0 66 38 10 c157
42 190 49 210 50 l22 1 0 -200z m-811 -148 c65 -128 190 -236 328 -283 59 -21
86 -24 198 -23 122 1 142 4 333 52 112 29 207 52 212 52 6 0 10 -31 10 -70 l0
-69 -37 -10 c-58 -15 -173 -28 -167 -19 3 4 15 8 27 9 22 0 22 0 -1 10 -25 10
-21 29 6 29 13 1 12 4 -6 13 -12 7 -20 16 -16 19 12 12 -40 6 -154 -18 -128
-28 -257 -33 -348 -14 -166 35 -319 150 -393 297 -20 41 -26 63 -16 63 2 0 13
-17 24 -38z m886 -320 c-3 -3 -11 0 -18 7 -9 10 -8 11 6 5 10 -3 15 -9 12 -12z"/>
<path d="M3723 3182 c-14 -9 -6 -352 9 -352 4 0 8 6 8 14 0 8 7 16 15 20 12 4
15 32 15 166 0 146 -2 160 -17 160 -10 0 -23 -4 -30 -8z"/>
<path d="M3440 2965 l0 -85 27 0 c14 0 35 -7 45 -17 12 -10 18 -12 18 -4 0 7
5 9 10 6 6 -4 8 -11 5 -16 -3 -5 1 -6 9 -3 13 5 13 10 4 27 -18 36 -110 177
-114 177 -2 0 -4 -38 -4 -85z"/>
<path d="M3760 2339 c0 -5 5 -7 10 -4 6 3 10 8 10 11 0 2 -4 4 -10 4 -5 0 -10
-5 -10 -11z"/>
<path d="M3133 3028 l-43 -9 0 -67 c1 -60 2 -65 15 -48 9 12 22 17 39 14 18
-4 23 -1 19 9 -6 16 18 14 29 -2 4 -5 8 18 8 53 0 68 2 66 -67 50z"/>
<path d="M2076 2768 l-78 -21 7 -106 c4 -58 8 -112 8 -120 0 -10 3 -10 12 3 7
8 15 13 18 9 4 -3 7 28 7 69 l0 76 70 17 70 17 0 39 c0 46 0 46 -114 17z"/>
<path d="M1750 2441 c0 -5 -10 -7 -22 -3 -13 3 -19 1 -15 -5 4 -6 -3 -8 -18
-5 -15 2 -25 0 -25 -7 0 -7 -5 -9 -10 -6 -6 3 -19 3 -30 0 -16 -5 -20 -15 -20
-46 0 -21 5 -39 10 -39 6 0 9 3 9 8 -3 20 3 31 21 37 12 4 17 11 14 18 -5 8
-3 8 6 0 11 -10 18 -9 34 5 14 12 17 13 11 2 -7 -12 -6 -13 7 -3 8 7 19 9 23
5 5 -4 5 -2 2 4 -4 7 0 14 8 18 17 6 21 26 5 26 -5 0 -10 -4 -10 -9z"/>
<path d="M2160 3450 c-47 -10 -123 -27 -170 -39 -177 -42 -310 -62 -504 -76
-223 -16 -287 -30 -393 -82 -102 -51 -174 -127 -223 -236 -25 -55 -26 -123 -2
-136 26 -14 46 2 80 61 39 70 143 172 217 213 77 43 164 67 345 95 316 50 765
170 778 208 5 16 -24 15 -128 -8z"/>
<path d="M2346 3196 c-22 -10 -25 -14 -12 -19 13 -5 46 15 46 29 0 5 2 5 -34
-10z"/>
<path d="M1988 2993 c-26 -4 -28 -8 -28 -52 0 -46 1 -48 25 -43 19 3 25 11 26
31 0 24 1 24 10 6 7 -16 8 -13 4 13 -4 25 -1 32 13 32 15 0 15 2 2 10 -8 5
-17 9 -20 8 -3 0 -17 -3 -32 -5z"/>
</g>
</svg>
